<svg width="28" height="28" viewBox="0 0 28 28" fill="none" xmlns="http://www.w3.org/2000/svg">
<path d="M6.05519 7.44351C5.83352 7.44351 5.60019 7.35018 5.43686 7.18684C5.09852 6.84851 5.09852 6.28851 5.43686 5.95018L9.67186 1.71518C10.0102 1.37684 10.5702 1.37684 10.9085 1.71518C11.2469 2.05351 11.2469 2.61351 10.9085 2.95184L6.67352 7.18684C6.49852 7.35018 6.27686 7.44351 6.05519 7.44351Z" fill="#292D32"/>
<path d="M21.945 7.44351C21.7233 7.44351 21.5016 7.36184 21.3266 7.18684L17.0916 2.95184C16.7533 2.61351 16.7533 2.05351 17.0916 1.71518C17.43 1.37684 17.99 1.37684 18.3283 1.71518L22.5633 5.95018C22.9016 6.28851 22.9016 6.84851 22.5633 7.18684C22.4 7.35018 22.1666 7.44351 21.945 7.44351Z" fill="#292D32"/>
<path d="M23.5785 12.3669C23.4968 12.3669 23.4152 12.3669 23.3335 12.3669H23.0652H4.66683C3.85016 12.3785 2.91683 12.3785 2.24016 11.7019C1.7035 11.1769 1.4585 10.3602 1.4585 9.15853C1.4585 5.9502 3.8035 5.9502 4.9235 5.9502H23.0768C24.1968 5.9502 26.5418 5.9502 26.5418 9.15853C26.5418 10.3719 26.2968 11.1769 25.7602 11.7019C25.1535 12.3085 24.3368 12.3669 23.5785 12.3669ZM4.9235 10.6169H23.3452C23.8702 10.6285 24.3602 10.6285 24.5235 10.4652C24.6052 10.3835 24.7802 10.1035 24.7802 9.15853C24.7802 7.8402 24.4535 7.7002 23.0652 7.7002H4.9235C3.53516 7.7002 3.2085 7.8402 3.2085 9.15853C3.2085 10.1035 3.39516 10.3835 3.46516 10.4652C3.6285 10.6169 4.13016 10.6169 4.6435 10.6169H4.9235Z" fill="#292D32"/>
<path d="M11.3867 21.3502C10.9084 21.3502 10.5117 20.9535 10.5117 20.4752V16.3335C10.5117 15.8552 10.9084 15.4585 11.3867 15.4585C11.8651 15.4585 12.2617 15.8552 12.2617 16.3335V20.4752C12.2617 20.9652 11.8651 21.3502 11.3867 21.3502Z" fill="#292D32"/>
<path d="M16.7534 21.3502C16.2751 21.3502 15.8784 20.9535 15.8784 20.4752V16.3335C15.8784 15.8552 16.2751 15.4585 16.7534 15.4585C17.2318 15.4585 17.6284 15.8552 17.6284 16.3335V20.4752C17.6284 20.9652 17.2318 21.3502 16.7534 21.3502Z" fill="#292D32"/>
<path d="M17.3717 26.5419H10.3367C6.16004 26.5419 5.22671 24.0569 4.86504 21.8985L3.22004 11.8069C3.13837 11.3285 3.46504 10.8852 3.94337 10.8035C4.42171 10.7219 4.86504 11.0485 4.94671 11.5269L6.59171 21.6069C6.93004 23.6719 7.63004 24.7919 10.3367 24.7919H17.3717C20.37 24.7919 20.7084 23.7419 21.0934 21.7119L23.0534 11.5035C23.1467 11.0252 23.6017 10.7102 24.08 10.8152C24.5584 10.9085 24.8617 11.3635 24.7684 11.8419L22.8084 22.0502C22.3534 24.4185 21.595 26.5419 17.3717 26.5419Z" fill="#292D32"/>
</svg>
