<svg width="238" height="149" viewBox="0 0 238 149" fill="none" xmlns="http://www.w3.org/2000/svg">
<rect width="238" height="149" rx="16" fill="url(#paint0_linear_502_33)"/>
<ellipse cx="186.875" cy="116" rx="14.875" ry="14" fill="#E33A24"/>
<ellipse cx="208.125" cy="116" rx="14.875" ry="14" fill="#F8CB2E" fill-opacity="0.8"/>
<path d="M24.176 43L28.288 31.08H31.104L35.216 43H32.848L32 40.44H27.392L26.528 43H24.176ZM28.016 38.52H31.376L29.392 32.584H30L28.016 38.52ZM36.5426 43V31.08H40.4306C41.6893 31.08 42.7826 31.336 43.7106 31.848C44.6493 32.3493 45.3746 33.048 45.8866 33.944C46.3986 34.8293 46.6546 35.8587 46.6546 37.032C46.6546 38.1947 46.3986 39.2293 45.8866 40.136C45.3746 41.032 44.6493 41.736 43.7106 42.248C42.7826 42.7493 41.6893 43 40.4306 43H36.5426ZM38.7186 41.08H40.4786C41.2893 41.08 41.988 40.9147 42.5746 40.584C43.172 40.2427 43.636 39.7733 43.9666 39.176C44.2973 38.568 44.4626 37.8533 44.4626 37.032C44.4626 36.2 44.2973 35.4853 43.9666 34.888C43.636 34.2907 43.172 33.8267 42.5746 33.496C41.988 33.1653 41.2893 33 40.4786 33H38.7186V41.08ZM48.3864 43V31.08H52.8184C53.629 31.08 54.3437 31.2293 54.9624 31.528C55.5917 31.816 56.0824 32.2427 56.4344 32.808C56.7864 33.3627 56.9624 34.04 56.9624 34.84C56.9624 35.6613 56.765 36.36 56.3704 36.936C55.9864 37.512 55.4637 37.9387 54.8024 38.216L57.5384 43H55.0744L52.1464 37.768L53.5544 38.6H50.5624V43H48.3864ZM50.5624 36.68H52.8504C53.245 36.68 53.5864 36.6053 53.8744 36.456C54.1624 36.296 54.3864 36.0773 54.5464 35.8C54.7064 35.5227 54.7864 35.2027 54.7864 34.84C54.7864 34.4667 54.7064 34.1467 54.5464 33.88C54.3864 33.6027 54.1624 33.3893 53.8744 33.24C53.5864 33.08 53.245 33 52.8504 33H50.5624V36.68ZM58.9645 43V31.08H63.9885C64.7778 31.08 65.4498 31.2187 66.0045 31.496C66.5698 31.7627 67.0018 32.1467 67.3005 32.648C67.6098 33.1387 67.7645 33.736 67.7645 34.44C67.7645 34.984 67.6152 35.496 67.3165 35.976C67.0285 36.4453 66.5645 36.8347 65.9245 37.144V36.136C66.5112 36.36 66.9752 36.6373 67.3165 36.968C67.6578 37.2987 67.8978 37.6667 68.0365 38.072C68.1752 38.4773 68.2445 38.904 68.2445 39.352C68.2445 40.4933 67.8658 41.3893 67.1085 42.04C66.3618 42.68 65.3218 43 63.9885 43H58.9645ZM61.1405 41.08H64.2125C64.7778 41.08 65.2258 40.9253 65.5565 40.616C65.8978 40.296 66.0685 39.8747 66.0685 39.352C66.0685 38.8293 65.8978 38.408 65.5565 38.088C65.2258 37.768 64.7778 37.608 64.2125 37.608H61.1405V41.08ZM61.1405 35.704H64.1005C64.5485 35.704 64.9058 35.576 65.1725 35.32C65.4392 35.0533 65.5725 34.712 65.5725 34.296C65.5725 33.88 65.4392 33.5493 65.1725 33.304C64.9058 33.0587 64.5485 32.936 64.1005 32.936H61.1405V35.704ZM72.491 43.192C71.883 43.192 71.355 43.0907 70.907 42.888C70.459 42.6853 70.1123 42.3973 69.867 42.024C69.6217 41.64 69.499 41.1973 69.499 40.696C69.499 40.216 69.6057 39.7893 69.819 39.416C70.0323 39.032 70.363 38.712 70.811 38.456C71.259 38.2 71.8243 38.0187 72.507 37.912L75.355 37.448V39.048L72.907 39.464C72.491 39.5387 72.1817 39.672 71.979 39.864C71.7763 40.056 71.675 40.3067 71.675 40.616C71.675 40.9147 71.787 41.1547 72.011 41.336C72.2457 41.5067 72.5337 41.592 72.875 41.592C73.3123 41.592 73.6963 41.5013 74.027 41.32C74.3683 41.128 74.6297 40.8667 74.811 40.536C75.003 40.2053 75.099 39.8427 75.099 39.448V37.208C75.099 36.8347 74.9497 36.5253 74.651 36.28C74.363 36.024 73.979 35.896 73.499 35.896C73.051 35.896 72.651 36.0187 72.299 36.264C71.9577 36.4987 71.707 36.8133 71.547 37.208L69.835 36.376C70.0057 35.9173 70.2723 35.5227 70.635 35.192C71.0083 34.8507 71.4457 34.584 71.947 34.392C72.4483 34.2 72.9923 34.104 73.579 34.104C74.2937 34.104 74.923 34.2373 75.467 34.504C76.011 34.76 76.4323 35.1227 76.731 35.592C77.0403 36.0507 77.195 36.5893 77.195 37.208V43H75.211V41.512L75.659 41.48C75.435 41.8533 75.1683 42.168 74.859 42.424C74.5497 42.6693 74.1977 42.8613 73.803 43C73.4083 43.128 72.971 43.192 72.491 43.192ZM79.1323 43V34.296H81.1003V36.008L80.9403 35.704C81.1429 35.1813 81.4736 34.7867 81.9323 34.52C82.4016 34.2427 82.9456 34.104 83.5643 34.104C84.2043 34.104 84.7696 34.2427 85.2603 34.52C85.7616 34.7973 86.1509 35.1867 86.4283 35.688C86.7056 36.1787 86.8443 36.7493 86.8443 37.4V43H84.7483V37.896C84.7483 37.512 84.6736 37.1813 84.5243 36.904C84.3749 36.6267 84.1669 36.4133 83.9003 36.264C83.6443 36.104 83.3403 36.024 82.9883 36.024C82.6469 36.024 82.3429 36.104 82.0763 36.264C81.8096 36.4133 81.6016 36.6267 81.4523 36.904C81.3029 37.1813 81.2283 37.512 81.2283 37.896V43H79.1323ZM88.6166 43V30.888H90.7126V38.824L89.9126 38.584L94.0086 34.296H96.6166L93.4006 37.8L96.6806 43H94.2806L91.4326 38.488L92.6806 38.232L90.0566 41.048L90.7126 39.768V43H88.6166Z" fill="white"/>
<g clip-path="url(#clip0_502_33)">
<path fill-rule="evenodd" clip-rule="evenodd" d="M211.333 31.0112C210.347 30.3519 209.187 30 208 30V24C210.373 24 212.693 24.7038 214.667 26.0224C216.64 27.3409 218.178 29.2151 219.087 31.4078C219.995 33.6005 220.232 36.0133 219.769 38.3411C219.306 40.6688 218.164 42.8071 216.485 44.4853C214.807 46.1635 212.669 47.3064 210.341 47.7694C208.013 48.2324 205.6 47.9948 203.408 47.0866C201.215 46.1783 199.341 44.6402 198.022 42.6668C196.704 40.6934 196 38.3734 196 36H202C202 37.1867 202.352 38.3467 203.011 39.3334C203.67 40.3201 204.608 41.0891 205.704 41.5433C206.8 41.9974 208.007 42.1162 209.171 41.8847C210.334 41.6532 211.404 41.0818 212.243 40.2427C213.082 39.4035 213.653 38.3344 213.885 37.1705C214.116 36.0067 213.997 34.8002 213.543 33.7039C213.089 32.6075 212.32 31.6705 211.333 31.0112Z" fill="white"/>
<path fill-rule="evenodd" clip-rule="evenodd" d="M202 24C202 24.7879 201.845 25.5682 201.543 26.2961C201.242 27.0241 200.8 27.6855 200.243 28.2426C199.685 28.7998 199.024 29.2418 198.296 29.5433C197.568 29.8448 196.788 30 196 30L196 36C197.576 36 199.136 35.6896 200.592 35.0866C202.048 34.4835 203.371 33.5996 204.485 32.4853C205.6 31.371 206.483 30.0481 207.087 28.5922C207.69 27.1363 208 25.5759 208 24L202 24Z" fill="white"/>
</g>
<defs>
<linearGradient id="paint0_linear_502_33" x1="0" y1="0" x2="235.92" y2="152.223" gradientUnits="userSpaceOnUse">
<stop stop-color="#FED4B4"/>
<stop offset="1" stop-color="#3BB9A1"/>
</linearGradient>
<clipPath id="clip0_502_33">
<rect width="24" height="24" fill="white" transform="translate(196 24)"/>
</clipPath>
</defs>
</svg>
