<svg width="20" height="20" viewBox="0 0 20 20" fill="none" xmlns="http://www.w3.org/2000/svg">
<path d="M13.334 18.9584H7.50065C4.63398 18.9584 2.70898 17.0334 2.70898 14.1667V5.83341C2.70898 2.96675 4.63398 1.04175 7.50065 1.04175H13.334C16.2007 1.04175 18.1257 2.96675 18.1257 5.83341V14.1667C18.1257 17.0334 16.2007 18.9584 13.334 18.9584ZM7.50065 2.29175C5.35065 2.29175 3.95898 3.68341 3.95898 5.83341V14.1667C3.95898 16.3167 5.35065 17.7084 7.50065 17.7084H13.334C15.484 17.7084 16.8757 16.3167 16.8757 14.1667V5.83341C16.8757 3.68341 15.484 2.29175 13.334 2.29175H7.50065Z" fill="#292D32"/>
<path d="M17.5007 13.125H3.33398C2.99232 13.125 2.70898 12.8417 2.70898 12.5C2.70898 12.1583 2.99232 11.875 3.33398 11.875H17.5007C17.8423 11.875 18.1257 12.1583 18.1257 12.5C18.1257 12.8417 17.8423 13.125 17.5007 13.125Z" fill="#292D32"/>
<path d="M6.66732 10.625H5.83398C5.49232 10.625 5.20898 10.3417 5.20898 10C5.20898 9.65833 5.49232 9.375 5.83398 9.375H6.66732C7.00898 9.375 7.29232 9.65833 7.29232 10C7.29232 10.3417 7.00898 10.625 6.66732 10.625Z" fill="#292D32"/>
<path d="M6.66732 8.54175H5.83398C5.49232 8.54175 5.20898 8.25841 5.20898 7.91675C5.20898 7.57508 5.49232 7.29175 5.83398 7.29175H6.66732C7.00898 7.29175 7.29232 7.57508 7.29232 7.91675C7.29232 8.25841 7.00898 8.54175 6.66732 8.54175Z" fill="#292D32"/>
<path d="M6.66732 6.45825H5.83398C5.49232 6.45825 5.20898 6.17492 5.20898 5.83325C5.20898 5.49159 5.49232 5.20825 5.83398 5.20825H6.66732C7.00898 5.20825 7.29232 5.49159 7.29232 5.83325C7.29232 6.17492 7.00898 6.45825 6.66732 6.45825Z" fill="#292D32"/>
<path d="M14.1673 16.25C13.9507 16.25 13.734 16.1583 13.5757 16.0083C13.4257 15.85 13.334 15.6333 13.334 15.4166C13.334 15.1916 13.4257 14.9833 13.5757 14.825C13.809 14.5916 14.1756 14.5166 14.484 14.65C14.584 14.6916 14.6757 14.75 14.759 14.825C14.909 14.9833 15.0007 15.2 15.0007 15.4166C15.0007 15.6333 14.909 15.85 14.759 16.0083C14.6757 16.0833 14.5923 16.1417 14.484 16.1833C14.384 16.225 14.2757 16.25 14.1673 16.25Z" fill="#292D32"/>
</svg>
