<svg width="28" height="28" viewBox="0 0 28 28" fill="none" xmlns="http://www.w3.org/2000/svg">
<path d="M14.186 13.5568C14.151 13.5568 14.1277 13.5568 14.0927 13.5568C14.0343 13.5452 13.9527 13.5452 13.8827 13.5568C10.4993 13.4518 7.94434 10.7918 7.94434 7.5135C7.94434 4.17683 10.6627 1.4585 13.9993 1.4585C17.336 1.4585 20.0543 4.17683 20.0543 7.5135C20.0427 10.7918 17.476 13.4518 14.221 13.5568C14.2093 13.5568 14.1977 13.5568 14.186 13.5568ZM13.9993 3.2085C11.631 3.2085 9.69434 5.14516 9.69434 7.5135C9.69434 9.84683 11.5143 11.7252 13.836 11.8068C13.8943 11.7952 14.0577 11.7952 14.2093 11.8068C16.496 11.7018 18.2927 9.8235 18.3043 7.5135C18.3043 5.14516 16.3677 3.2085 13.9993 3.2085Z" fill="#292D32"/>
<path d="M14.1979 26.3082C11.9112 26.3082 9.61288 25.7248 7.87454 24.5582C6.25288 23.4848 5.36621 22.0148 5.36621 20.4165C5.36621 18.8182 6.25288 17.3365 7.87454 16.2515C11.3745 13.9298 17.0445 13.9298 20.5212 16.2515C22.1312 17.3248 23.0295 18.7948 23.0295 20.3932C23.0295 21.9915 22.1429 23.4732 20.5212 24.5582C18.7712 25.7248 16.4845 26.3082 14.1979 26.3082ZM8.84288 17.7215C7.72288 18.4682 7.11621 19.4248 7.11621 20.4282C7.11621 21.4198 7.73454 22.3765 8.84288 23.1115C11.7479 25.0598 16.6479 25.0598 19.5529 23.1115C20.6729 22.3648 21.2795 21.4082 21.2795 20.4048C21.2795 19.4132 20.6612 18.4565 19.5529 17.7215C16.6479 15.7848 11.7479 15.7848 8.84288 17.7215Z" fill="#292D32"/>
</svg>
