<svg width="112" height="85" viewBox="0 0 112 85" fill="none" xmlns="http://www.w3.org/2000/svg">
<g filter="url(#filter0_d_50_1430)">
<rect x="21.3229" y="21.3229" width="69.3542" height="42.3542" fill="white" stroke="#D9D9D9" stroke-width="2.64583"/>
<path fill-rule="evenodd" clip-rule="evenodd" d="M65.6195 55.2617C73.3722 55.2617 79.657 49.4669 79.657 42.3186C79.657 35.1703 73.3722 29.3755 65.6195 29.3755C62.145 29.3755 58.9652 30.5394 56.514 32.4675C54.0627 30.5395 50.8831 29.3756 47.4086 29.3756C39.6559 29.3756 33.3711 35.1704 33.3711 42.3187C33.3711 49.467 39.6559 55.2618 47.4086 55.2618C50.8831 55.2618 54.0628 54.0978 56.5141 52.1697C58.9653 54.0978 62.145 55.2617 65.6195 55.2617Z" fill="#ED0006"/>
<path fill-rule="evenodd" clip-rule="evenodd" d="M56.5137 52.1698C59.5319 49.7957 61.4458 46.2632 61.4458 42.3186C61.4458 38.3739 59.5319 34.8414 56.5137 32.4674C58.9649 30.5394 62.1446 29.3755 65.6191 29.3755C73.3717 29.3755 79.6565 35.1703 79.6565 42.3186C79.6565 49.4669 73.3717 55.2617 65.6191 55.2617C62.1446 55.2617 58.9649 54.0978 56.5137 52.1698Z" fill="#F9A000"/>
<path fill-rule="evenodd" clip-rule="evenodd" d="M56.5141 52.1696C59.5324 49.7956 61.4462 46.2631 61.4462 42.3184C61.4462 38.3738 59.5324 34.8413 56.5141 32.4673C53.4959 34.8413 51.582 38.3738 51.582 42.3185C51.582 46.2631 53.4959 49.7956 56.5141 52.1696Z" fill="#FF5E00"/>
</g>
<defs>
<filter id="filter0_d_50_1430" x="0" y="0" width="112" height="85" filterUnits="userSpaceOnUse" color-interpolation-filters="sRGB">
<feFlood flood-opacity="0" result="BackgroundImageFix"/>
<feColorMatrix in="SourceAlpha" type="matrix" values="0 0 0 0 0 0 0 0 0 0 0 0 0 0 0 0 0 0 127 0" result="hardAlpha"/>
<feOffset/>
<feGaussianBlur stdDeviation="10"/>
<feComposite in2="hardAlpha" operator="out"/>
<feColorMatrix type="matrix" values="0 0 0 0 0 0 0 0 0 0 0 0 0 0 0 0 0 0 0.07 0"/>
<feBlend mode="normal" in2="BackgroundImageFix" result="effect1_dropShadow_50_1430"/>
<feBlend mode="normal" in="SourceGraphic" in2="effect1_dropShadow_50_1430" result="shape"/>
</filter>
</defs>
</svg>
