<svg width="72" height="60" viewBox="0 0 72 60" fill="none" xmlns="http://www.w3.org/2000/svg">
<rect x="1.345" y="9.345" width="69.31" height="42.31" fill="#FFF9F9" stroke="#D9D9D9" stroke-width="2.69"/>
<g clip-path="url(#clip0_182_1941)">
<path d="M52.1176 25.894H48.7969C48.5701 25.894 48.3769 26.0591 48.3415 26.2834L46.9986 34.7975C46.9719 34.9654 47.102 35.1169 47.2715 35.1169H48.9755C49.1338 35.1169 49.2692 35.0014 49.294 34.8441L49.6751 32.4307C49.7101 32.2059 49.9038 32.0408 50.1305 32.0408H51.1811C53.3687 32.0408 54.6305 30.9825 54.9607 28.8852C55.1097 27.9676 54.9665 27.2466 54.5368 26.7417C54.0654 26.1873 53.2289 25.894 52.1176 25.894ZM52.5007 29.0036C52.3196 30.195 51.4093 30.195 50.5286 30.195H50.0281L50.3801 27.97C50.4009 27.8355 50.5165 27.7365 50.6529 27.7365H50.8825C51.4816 27.7365 52.0477 27.7365 52.34 28.0783C52.5143 28.2822 52.5672 28.5851 52.5007 29.0036Z" fill="#179BD7"/>
<path d="M62.0416 28.9654H60.4526C60.3162 28.9654 60.2001 29.0645 60.1797 29.199L60.1094 29.6437L59.9977 29.4825C59.6535 28.9829 58.8864 28.8159 58.1203 28.8159C56.3633 28.8159 54.8631 30.1466 54.5709 32.0134C54.4194 32.9445 54.6345 33.8349 55.1627 34.4559C55.6482 35.0268 56.3405 35.2647 57.1653 35.2647C58.581 35.2647 59.3661 34.3544 59.3661 34.3544L59.2952 34.7962C59.2685 34.9651 59.3986 35.1166 59.569 35.1166H61.0007C61.2274 35.1166 61.4207 34.9516 61.4561 34.7268L62.3159 29.2849C62.3421 29.1174 62.212 28.9654 62.0416 28.9654ZM59.8253 32.06C59.6729 32.9683 58.951 33.5781 58.0314 33.5781C57.5707 33.5781 57.2008 33.43 56.9639 33.1494C56.7289 32.8707 56.6405 32.4741 56.7143 32.0323C56.8585 31.1317 57.5906 30.502 58.4961 30.502C58.9476 30.502 59.3146 30.652 59.5564 30.9351C59.7996 31.221 59.8957 31.6201 59.8253 32.06Z" fill="#179BD7"/>
<path d="M63.917 26.1276L62.5543 34.7975C62.5276 34.9654 62.6577 35.1169 62.8271 35.1169H64.1972C64.4249 35.1169 64.6181 34.9518 64.653 34.7271L65.9969 26.2135C66.0236 26.0455 65.8935 25.8936 65.724 25.8936H64.1899C64.0544 25.894 63.9379 25.9931 63.917 26.1276Z" fill="#179BD7"/>
<path d="M28.435 25.8936H25.1147C24.8875 25.8936 24.6943 26.0586 24.6589 26.2829L23.316 34.797C23.2893 34.965 23.4194 35.1164 23.5898 35.1164H25.1749C25.4021 35.1164 25.5954 34.9514 25.6308 34.7266L25.993 32.4302C26.0279 32.2054 26.2216 32.0404 26.4484 32.0404H27.4995C29.6866 32.0404 30.9489 30.982 31.2785 28.8847C31.4271 27.9671 31.2848 27.2461 30.8552 26.7412C30.3833 26.1868 29.5463 25.8936 28.435 25.8936ZM28.8181 29.0031C28.6365 30.1945 27.7262 30.1945 26.846 30.1945H26.345L26.6965 27.9695C26.7173 27.835 26.8339 27.736 26.9698 27.736H27.1994C27.799 27.736 28.3646 27.736 28.6569 28.0778C28.8312 28.2817 28.8846 28.5846 28.8181 29.0031Z" fill="#253B80"/>
<path d="M38.3601 28.965H36.7701C36.6347 28.965 36.5176 29.064 36.4968 29.1985L36.4264 29.6432L36.3152 29.482C35.971 28.9824 35.2034 28.8154 34.4373 28.8154C32.6803 28.8154 31.1797 30.1462 30.8874 32.0129C30.7354 32.944 30.9515 33.8344 31.4797 34.4554C31.9642 35.0263 32.6575 35.2642 33.4824 35.2642C34.898 35.2642 35.6831 34.3539 35.6831 34.3539L35.6122 34.7957C35.5855 34.9647 35.7156 35.1161 35.8851 35.1161H37.3172C37.5449 35.1161 37.7372 34.9511 37.7731 34.7263L38.6324 29.2844C38.6596 29.1169 38.53 28.965 38.3601 28.965ZM36.1438 32.0595C35.9904 32.9678 35.2695 33.5776 34.3499 33.5776C33.8882 33.5776 33.5193 33.4295 33.2823 33.1489C33.0474 32.8703 32.958 32.4736 33.0328 32.0318C33.176 31.1312 33.9091 30.5015 34.8145 30.5015C35.2661 30.5015 35.6331 30.6516 35.8749 30.9346C36.1171 31.2206 36.2132 31.6196 36.1438 32.0595Z" fill="#253B80"/>
<path d="M46.8278 28.9648H45.2301C45.0777 28.9648 44.9344 29.0406 44.848 29.1673L42.6444 32.4133L41.7103 29.294C41.6515 29.0988 41.4714 28.9648 41.2675 28.9648H39.6974C39.5066 28.9648 39.3741 29.1513 39.4348 29.3309L41.1947 34.4956L39.5401 36.8313C39.41 37.0153 39.5411 37.2682 39.7659 37.2682H41.3617C41.5132 37.2682 41.6549 37.1944 41.7409 37.0701L47.0551 29.3994C47.1823 29.2158 47.0517 28.9648 46.8278 28.9648Z" fill="#253B80"/>
<path d="M9.52712 36.7711L9.78103 35.1583L9.21544 35.1452H6.51465L8.39156 23.2444C8.39738 23.2084 8.41632 23.1749 8.44399 23.1512C8.47166 23.1274 8.5071 23.1143 8.544 23.1143H13.0979C14.6097 23.1143 15.653 23.4289 16.1978 24.0498C16.4531 24.3411 16.6158 24.6455 16.6944 24.9805C16.777 25.332 16.7784 25.7519 16.6978 26.2641L16.692 26.3015V26.6297L16.9474 26.7744C17.1624 26.8885 17.3333 27.0191 17.4644 27.1686C17.6829 27.4177 17.8242 27.7342 17.8839 28.1095C17.9455 28.4954 17.9251 28.9547 17.8242 29.4747C17.7076 30.0728 17.5193 30.5937 17.2649 31.02C17.0309 31.4128 16.7328 31.7385 16.3789 31.991C16.041 32.2308 15.6395 32.4129 15.1855 32.5294C14.7457 32.644 14.2442 32.7017 13.6941 32.7017H13.3397C13.0863 32.7017 12.8401 32.793 12.6469 32.9566C12.4532 33.1236 12.325 33.3518 12.2857 33.6014L12.259 33.7465L11.8104 36.5891L11.79 36.6934C11.7847 36.7265 11.7754 36.743 11.7618 36.7541C11.7497 36.7643 11.7322 36.7711 11.7152 36.7711H9.52712Z" fill="#253B80"/>
<path d="M17.1901 26.3394C17.1765 26.4263 17.161 26.5151 17.1435 26.6064C16.5429 29.6897 14.4883 30.7549 11.8643 30.7549H10.5282C10.2073 30.7549 9.93686 30.9879 9.88686 31.3045L9.2028 35.6428L9.00909 36.8726C8.97656 37.0804 9.13677 37.2678 9.34651 37.2678H11.7162C11.9968 37.2678 12.2352 37.0639 12.2794 36.7871L12.3027 36.6667L12.7488 33.8353L12.7775 33.68C12.8212 33.4023 13.06 33.1984 13.3406 33.1984H13.6951C15.9909 33.1984 17.7882 32.2662 18.3135 29.5688C18.533 28.442 18.4194 27.5011 17.8387 26.8394C17.663 26.6399 17.445 26.4743 17.1901 26.3394Z" fill="#179BD7"/>
<path d="M16.5617 26.0891C16.47 26.0624 16.3753 26.0381 16.2782 26.0163C16.1806 25.9949 16.0806 25.976 15.9777 25.9595C15.6175 25.9012 15.2228 25.8735 14.7999 25.8735H11.2306C11.1427 25.8735 11.0592 25.8934 10.9844 25.9294C10.8198 26.0085 10.6975 26.1643 10.6679 26.3551L9.90857 31.1644L9.88672 31.3047C9.93672 30.9882 10.2071 30.7551 10.5281 30.7551H11.8641C14.4882 30.7551 16.5428 29.6895 17.1434 26.6066C17.1613 26.5154 17.1764 26.4265 17.19 26.3396C17.038 26.259 16.8734 26.1901 16.6962 26.1313C16.6525 26.1168 16.6074 26.1027 16.5617 26.0891Z" fill="#222D65"/>
<path d="M10.6675 26.355C10.6971 26.1642 10.8195 26.0083 10.984 25.9297C11.0593 25.8938 11.1423 25.8739 11.2302 25.8739H14.7995C15.2224 25.8739 15.6171 25.9015 15.9773 25.9598C16.0802 25.9763 16.1803 25.9952 16.2778 26.0166C16.3749 26.0384 16.4696 26.0627 16.5614 26.0894C16.607 26.103 16.6522 26.1171 16.6963 26.1312C16.8735 26.1899 17.0381 26.2593 17.1901 26.3394C17.3687 25.2 17.1886 24.4242 16.5725 23.7217C15.8933 22.9483 14.6675 22.6172 13.0988 22.6172H8.54494C8.22451 22.6172 7.95118 22.8502 7.90166 23.1672L6.00485 35.1904C5.96747 35.4283 6.15098 35.6429 6.39081 35.6429H9.20229L9.9082 31.1643L10.6675 26.355Z" fill="#253B80"/>
</g>
<defs>
<clipPath id="clip0_182_1941">
<rect width="60" height="60" fill="white" transform="translate(6)"/>
</clipPath>
</defs>
</svg>
