<svg width="112" height="86" viewBox="0 0 112 86" fill="none" xmlns="http://www.w3.org/2000/svg">
<g filter="url(#filter0_d_184_1945)">
<rect x="21.3229" y="21.3229" width="69.3542" height="43.3542" fill="white" stroke="#D9D9D9" stroke-width="2.64583"/>
<path fill-rule="evenodd" clip-rule="evenodd" d="M41.8583 51.1618H37.4965L34.2257 39.5356C34.0705 39.0008 33.7408 38.528 33.256 38.3051C32.0459 37.7451 30.7125 37.2995 29.2578 37.0747V36.6271H36.2843C37.2541 36.6271 37.9814 37.2995 38.1026 38.0804L39.7997 46.4668L44.1594 36.6271H48.4L41.8583 51.1618ZM50.8231 51.1618H46.7038L50.0958 36.6271H54.2152L50.8231 51.1618ZM59.5457 40.6543C59.6669 39.8714 60.3942 39.4238 61.2427 39.4238C62.5762 39.3114 64.0287 39.5362 65.2409 40.0943L65.9682 36.9649C64.756 36.5173 63.4226 36.2925 62.2125 36.2925C58.2144 36.2925 55.3051 38.3058 55.3051 41.0999C55.3051 43.2256 57.3658 44.3417 58.8205 45.0141C60.3942 45.6846 61.0003 46.1322 60.8791 46.8026C60.8791 47.8083 59.6669 48.2559 58.4568 48.2559C57.0022 48.2559 55.5475 47.9207 54.2162 47.3607L53.4889 50.492C54.9435 51.0501 56.5173 51.2749 57.9719 51.2749C62.4549 51.3853 65.2409 49.374 65.2409 46.355C65.2409 42.5532 59.5457 42.3304 59.5457 40.6543V40.6543ZM79.6566 51.1618L76.3858 36.6271H72.8725C72.1452 36.6271 71.4179 37.0747 71.1754 37.7451L65.1187 51.1618H69.3593L70.2057 49.0381H75.416L75.9009 51.1618H79.6566ZM73.4786 40.5416L74.6886 46.0195H71.2966L73.4786 40.5416Z" fill="#172B85"/>
</g>
<defs>
<filter id="filter0_d_184_1945" x="0" y="0" width="112" height="86" filterUnits="userSpaceOnUse" color-interpolation-filters="sRGB">
<feFlood flood-opacity="0" result="BackgroundImageFix"/>
<feColorMatrix in="SourceAlpha" type="matrix" values="0 0 0 0 0 0 0 0 0 0 0 0 0 0 0 0 0 0 127 0" result="hardAlpha"/>
<feOffset/>
<feGaussianBlur stdDeviation="10"/>
<feComposite in2="hardAlpha" operator="out"/>
<feColorMatrix type="matrix" values="0 0 0 0 0 0 0 0 0 0 0 0 0 0 0 0 0 0 0.07 0"/>
<feBlend mode="normal" in2="BackgroundImageFix" result="effect1_dropShadow_184_1945"/>
<feBlend mode="normal" in="SourceGraphic" in2="effect1_dropShadow_184_1945" result="shape"/>
</filter>
</defs>
</svg>
